<?xml version="1.0" encoding="UTF-8" standalone="no"?>
<!-- Created with Inkscape (http://www.inkscape.org/) -->

<svg
   version="1.1"
   id="svg99"
   width="272.31378"
   height="208.63934"
   viewBox="0 0 272.31378 208.63934"
   sodipodi:docname="logo_prokontrol.svg"
   inkscape:version="1.2.2 (b0a8486541, 2022-12-01)"
   xml:space="preserve"
   xmlns:inkscape="http://www.inkscape.org/namespaces/inkscape"
   xmlns:sodipodi="http://sodipodi.sourceforge.net/DTD/sodipodi-0.dtd"
   xmlns="http://www.w3.org/2000/svg"
   xmlns:svg="http://www.w3.org/2000/svg"><defs
     id="defs103"><inkscape:path-effect
       effect="bspline"
       id="path-effect381"
       is_visible="true"
       lpeversion="1"
       weight="33.333333"
       steps="2"
       helper_size="0"
       apply_no_weight="true"
       apply_with_weight="true"
       only_selected="false" /></defs><sodipodi:namedview
     id="namedview101"
     pagecolor="#505050"
     bordercolor="#eeeeee"
     borderopacity="1"
     inkscape:showpageshadow="0"
     inkscape:pageopacity="0"
     inkscape:pagecheckerboard="true"
     inkscape:deskcolor="#505050"
     showgrid="false"
     inkscape:zoom="2.2152329"
     inkscape:cx="26.859478"
     inkscape:cy="132.71742"
     inkscape:window-width="1920"
     inkscape:window-height="1011"
     inkscape:window-x="0"
     inkscape:window-y="32"
     inkscape:window-maximized="1"
     inkscape:current-layer="g105" /><g
     inkscape:groupmode="layer"
     inkscape:label="Image"
     id="g105"
     transform="translate(-266.05813,-144.94705)"><g
       id="g451"
       style="display:inline;fill:#0000ff"><path
         style="fill:#1a4a6e;fill-opacity:1"
         d="m 266.05813,230.94269 c 0,0 43.30862,-85.33189 136.17555,-85.99221 0.48073,90.83337 0.34152,92.43808 0.3324,208.63592 C 284.74423,284.10672 266.05813,230.94269 266.05813,230.94269 Z"
         id="path432"
         sodipodi:nodetypes="cccc" /><path
         style="fill:#1a4a6e;fill-opacity:1"
         d="m 538.37192,230.93926 c 0,0 -43.30862,-85.33189 -136.17555,-85.99221 -0.48073,90.83337 -0.34152,92.43808 -0.3324,208.63592 117.82185,-69.47968 136.50795,-122.64371 136.50795,-122.64371 z"
         id="path447"
         sodipodi:nodetypes="cccc" /></g><path
       style="display:inline;fill:#dce3e8;stroke-width:2.62755;fill-opacity:1"
       d="m 284.33382,231.94246 c 19.13907,-27.55644 80.35831,-68.31596 117.93852,-67.6879 37.58021,0.62806 85.68893,30.64939 119.82137,67.02435 -31.78746,34.40758 -82.83693,71.31676 -124.03459,70.38938 -41.19766,-0.92738 -86.22876,-41.67072 -113.7253,-69.72583 z"
       id="path565"
       sodipodi:nodetypes="czczc" /><path
       style="display:inline;fill:#dce3e8;stroke-width:2.17631;fill-opacity:1"
       d="m 457.76172,260.41682 c 3.87291,13.44051 -8.15857,38.30576 -55.2774,71.65711 -51.081,-38.60925 -60.38594,-62.51266 -60.67009,-71.23593 -0.34586,-81.72779 115.77486,-91.58889 115.94749,-0.42118 z"
       id="path567"
       sodipodi:nodetypes="cccc" /><ellipse
       style="display:inline;fill:#1a4a6e;stroke-width:1.11524;fill-opacity:1"
       id="path621"
       cx="401.98172"
       cy="232.88676"
       rx="59.899994"
       ry="59.736736" /><text
       xml:space="preserve"
       style="font-size:132.084px;display:inline;fill:#f2742c;stroke-width:11.007;fill-opacity:1"
       x="352.2562"
       y="283.3262"
       id="text677"
       transform="scale(1.0092088,0.99087522)"><tspan
         sodipodi:role="line"
         id="tspan675"
         x="352.2562"
         y="283.3262"
         style="font-style:normal;font-variant:normal;font-weight:800;font-stretch:normal;font-size:132.084px;font-family:Montserrat;-inkscape-font-specification:'Montserrat, Ultra-Bold';font-variant-ligatures:normal;font-variant-caps:normal;font-variant-numeric:normal;font-variant-east-asian:normal;fill:#f2742c;stroke-width:11.007;fill-opacity:1">K</tspan></text></g></svg>
